<?xml version="1.0" encoding="UTF-8"?>
<svg id="Graphic_Elements" data-name="Graphic Elements" xmlns="http://www.w3.org/2000/svg" xmlns:xlink="http://www.w3.org/1999/xlink" viewBox="0 0 45 45">
  <defs>
    <style>
      .cls-1 {
        fill: url(#radial-gradient);
      }

      .cls-1, .cls-2 {
        fill-rule: evenodd;
      }

      .cls-2 {
        fill: #fff;
      }
    </style>
    <radialGradient id="radial-gradient" cx="-1827.34" cy="829.62" fx="-1827.34" fy="829.62" r=".06" gradientTransform="translate(1394782.7 633274.99) scale(763.28 -763.28)" gradientUnits="userSpaceOnUse">
      <stop offset="0" stop-color="#5697fb"/>
      <stop offset=".61" stop-color="#8936f9"/>
      <stop offset=".93" stop-color="#dd537e"/>
      <stop offset="1" stop-color="#e06f62"/>
    </radialGradient>
  </defs>
  <path class="cls-2" d="M22.5,0C10.07,0,0,10.07,0,22.5c0,6.67,2.91,12.67,7.53,16.79l.08,2.5c.05,1.71,1.43,3.05,3.14,3.05,.44,0,.86-.09,1.27-.27l2.44-1.06c2.5,.96,5.22,1.49,8.06,1.49,12.43,0,22.5-10.07,22.5-22.5S34.93,0,22.5,0Z"/>
  <g id="logo">
    <path id="bubble" class="cls-1" d="M22.5,2.33C10.95,2.33,2,10.79,2,22.22c0,5.98,2.45,11.14,6.44,14.71,.33,.3,.54,.72,.55,1.17l.11,3.65c.04,1.16,1.24,1.92,2.3,1.45l4.07-1.8c.34-.15,.73-.18,1.09-.08,1.87,.51,3.86,.79,5.93,.79,11.55,0,20.5-8.46,20.5-19.89S34.05,2.33,22.5,2.33Z"/>
    <path id="bolt" class="cls-2" d="M10.19,28.03l6.02-9.55c.96-1.52,3.01-1.9,4.45-.82l4.79,3.59c.44,.33,1.04,.33,1.48,0l6.47-4.91c.86-.66,1.99,.38,1.41,1.29l-6.02,9.55c-.96,1.52-3.01,1.9-4.45,.82l-4.79-3.59c-.44-.33-1.04-.33-1.48,0l-6.47,4.91c-.86,.66-1.99-.38-1.41-1.29Z"/>
  </g>
  <path class="cls-2" d="M11.02,31.04c-.9,0-1.74-.5-2.18-1.3-.44-.79-.41-1.73,.08-2.5l6.02-9.55c.84-1.34,2.29-2.14,3.87-2.14,1,0,1.94,.32,2.74,.92l4.63,3.47,6.31-4.79c.44-.33,.96-.51,1.49-.51,.9,0,1.74,.5,2.18,1.3,.44,.79,.41,1.73-.08,2.5l-6.02,9.55c-.84,1.34-2.29,2.14-3.87,2.14-1,0-1.94-.32-2.74-.92l-4.63-3.47-6.31,4.79c-.44,.33-.96,.51-1.49,.51Z"/>
</svg>